<svg width="170" height="47" fill="none" xmlns="http://www.w3.org/2000/svg"><g clip-path="url(#clip0_1276_12211)"><path d="M110.253 22.933l-9.802 16.174c-.604.953-1.344 1.437-2.235 1.451-.919.014-1.316-.304-1.22-.94.04-.249.137-.484.288-.719l9.624-15.938-7.691.097L87.92 41.733c-.329.525-.535 1.01-.603 1.424-.11.733.055 1.313.534 1.756.467.442 1.207.663 2.208.65l9.802-.111a17.685 17.685 0 002.07-.139 5.276 5.276 0 001.659-.497 4.94 4.94 0 001.399-1.023c.425-.429.85-.995 1.275-1.687L117.93 22.81l-7.677.124zm-21.894 5.17l-4.387 7.244-.302.483-5.991 9.898-7.691.097 6.005-9.925.48-.788 4.18-6.912-5.689.07 3.003-4.963 18.385-.222-3.003 4.963-4.99.055zm64.271 7.589l-5.621.07-2.605 4.27 5.621-.068-3.002 4.962-13.313.152 6.869-11.349.26-.442.042-.07.287-.483 6.197-10.23 13.312-.151-3.002 4.962-5.621.07-2.056 3.414 5.62-.07-1.151 1.908-.288.484-1.549 2.571zm-12.983-9.233l-3.812 6.317-.287.484-7.198 11.874-7.691.097 7.211-11.916.302-.484 2.248-3.718a1.33 1.33 0 00.178-.512c.11-.663-.219-.981-1-.967l-1.604.013-10.68 17.625-7.691.097 13.668-22.574 14.203-.166c1.001-.013 1.741.208 2.208.65.466.443.644 1.05.521 1.797-.028.18-.096.387-.179.608a4.657 4.657 0 01-.397.775z" fill="#fff"/><path fill-rule="evenodd" clip-rule="evenodd" d="M58.129 22.643l-7.074 15.883-.178.415-.33.732-2.851 6.4-48.19.581 6.403-6.621.713-.733 15.355-15.883.424-.442.042-.042.712-.732 4.36-4.506 16.11-.194-4.114 4.548-.74.815-12.16 13.45 9.72-.11 6.141-13.229.069-.138.041-.083.343-.747 4.236-9.15a2.98 2.98 0 00.165-.388c.04-.11.068-.262.11-.456.164-1.009-.357-1.52-1.59-1.493l-14.41.194L37.414.637l23.992-.29c1.59-.015 2.769.386 3.537 1.202.767.815 1.042 1.935.808 3.373-.096.594-.329 1.3-.671 2.087l-6.622 14.888-.33.746z" fill="red"/><path d="M70.797 31.587l-9.666.11-3.153 5.115h9.624l3.195-5.225z" fill="#fff"/></g><defs><clipPath id="clip0_1276_12211"><path fill="#fff" d="M0 0h170v47H0z"/></clipPath></defs></svg>